{
  "accessors": [
    {
      "bufferView": 1,
      "componentType": 5126,
      "count": 65532,
      "max": [
        17.595176696777344,
        -115.70352172851563,
        -455.24078369140625
      ],
      "min": [
        -81.51122283935547,
        -198.06341552734375,
        -548.3230590820313
      ],
      "type": "VEC3"
    },
    {
      "bufferView": 1,
      "byteOffset": 786384,
      "componentType": 5126,
      "count": 65532,
      "max": [
        0.9999948143959045,
        0.9999996423721313,
        0.9999976754188538
      ],
      "min": [
        -0.9999998211860657,
        -0.999998152256012,
        -0.9999961853027344
      ],
      "type": "VEC3"
    },
    {
      "bufferView": 0,
      "componentType": 5125,
      "count": 366516,
      "type": "SCALAR"
    },
    {
      "bufferView": 1,
      "byteOffset": 1572768,
      "componentType": 5126,
      "count": 65532,
      "max": [
        25.904376983642578,
        -115.38501739501953,
        -500.8396911621094
      ],
      "min": [
        -77.40262603759766,
        -198.0136260986328,
        -584.1582641601563
      ],
      "type": "VEC3"
    },
    {
      "bufferView": 1,
      "byteOffset": 2359152,
      "componentType": 5126,
      "count": 65532,
      "max": [
        0.9999780654907227,
        0.9999955892562866,
        0.9999790191650391
      ],
      "min": [
        -0.9999849200248718,
        -0.9999983310699463,
        -0.9999927878379822
      ],
      "type": "VEC3"
    },
    {
      "bufferView": 0,
      "byteOffset": 1466064,
      "componentType": 5125,
      "count": 366834,
      "type": "SCALAR"
    },
    {
      "bufferView": 1,
      "byteOffset": 3145536,
      "componentType": 5126,
      "count": 53421,
      "max": [
        26.738977432250977,
        -115.67521667480469,
        -483.4956970214844
      ],
      "min": [
        -81.51811981201172,
        -197.8749237060547,
        -554.81689453125
      ],
      "type": "VEC3"
    },
    {
      "bufferView": 1,
      "byteOffset": 3786588,
      "componentType": 5126,
      "count": 53421,
      "max": [
        0.9999515414237976,
        0.9999985694885254,
        0.9999992847442627
      ],
      "min": [
        -0.9999998211860657,
        -0.9999741315841675,
        -0.9999590516090393
      ],
      "type": "VEC3"
    },
    {
      "bufferView": 0,
      "byteOffset": 2933400,
      "componentType": 5125,
      "count": 278250,
      "type": "SCALAR"
    }
  ],
  "asset": {
    "extras": {
      "author": "VisibleHeartLabs (https://sketchfab.com/VisibleHeartLabs)",
      "license": "CC-BY-NC-4.0 (http://creativecommons.org/licenses/by-nc/4.0/)",
      "source": "https://sketchfab.com/3d-models/hypertension-coronary-arteries-model-heart0046-72784642f339431fab1c61c2cf88baba",
      "title": "Hypertension Coronary Arteries Model- Heart0046"
    },
    "generator": "Sketchfab-15.9.0",
    "version": "2.0"
  },
  "bufferViews": [
    {
      "buffer": 0,
      "byteLength": 4046400,
      "name": "floatBufferViews",
      "target": 34963
    },
    {
      "buffer": 0,
      "byteLength": 4427640,
      "byteOffset": 4046400,
      "byteStride": 12,
      "name": "floatBufferViews",
      "target": 34962
    }
  ],
  "buffers": [
    {
      "byteLength": 8474040,
      "uri": "scene.bin"
    }
  ],
  "materials": [
    {
      "doubleSided": true,
      "name": "Scene_-_Root",
      "pbrMetallicRoughness": {
        "baseColorFactor": [
          0.7241664348743744,
          0.0,
          0.0,
          1.0
        ],
        "metallicFactor": 0.0,
        "roughnessFactor": 0.6
      }
    }
  ],
  "meshes": [
    {
      "name": "Object_0",
      "primitives": [
        {
          "attributes": {
            "NORMAL": 1,
            "POSITION": 0
          },
          "indices": 2,
          "material": 0,
          "mode": 4
        }
      ]
    },
    {
      "name": "Object_1",
      "primitives": [
        {
          "attributes": {
            "NORMAL": 4,
            "POSITION": 3
          },
          "indices": 5,
          "material": 0,
          "mode": 4
        }
      ]
    },
    {
      "name": "Object_2",
      "primitives": [
        {
          "attributes": {
            "NORMAL": 7,
            "POSITION": 6
          },
          "indices": 8,
          "material": 0,
          "mode": 4
        }
      ]
    }
  ],
  "nodes": [
    {
      "children": [
        1
      ],
      "matrix": [
        0.7610584497451782,
        0.6486833095550537,
        1.440366291916137e-16,
        0.0,
        0.0,
        2.220446049250313e-16,
        -1.0,
        0.0,
        -0.6486833095550537,
        0.7610584497451782,
        1.689889227985249e-16,
        0.0,
        0.0,
        0.0,
        0.0,
        1.0
      ],
      "name": "Sketchfab_model"
    },
    {
      "children": [
        2,
        3,
        4
      ],
      "name": "Heart0046_CoronaryArteries.stl.cleaner.materialmerger.gles"
    },
    {
      "mesh": 0,
      "name": "Object_2"
    },
    {
      "mesh": 1,
      "name": "Object_3"
    },
    {
      "mesh": 2,
      "name": "Object_4"
    }
  ],
  "scene": 0,
  "scenes": [
    {
      "name": "Sketchfab_Scene",
      "nodes": [
        0
      ]
    }
  ]
}
